<svg xmlns="http://www.w3.org/2000/svg" viewBox="0 0 32 32" width="32" height="32">
  <!-- Background circle -->
  <circle cx="16" cy="16" r="15" fill="#3b82f6" stroke="#1d4ed8" stroke-width="2"/>
  
  <!-- Calculator body -->
  <rect x="8" y="6" width="16" height="20" rx="2" fill="#ffffff" stroke="#374151" stroke-width="1"/>
  
  <!-- Calculator screen -->
  <rect x="10" y="8" width="12" height="4" rx="1" fill="#f3f4f6" stroke="#9ca3af" stroke-width="0.5"/>
  
  <!-- Calculator buttons -->
  <rect x="10" y="14" width="3" height="3" rx="0.5" fill="#e5e7eb"/>
  <rect x="14" y="14" width="3" height="3" rx="0.5" fill="#e5e7eb"/>
  <rect x="18" y="14" width="3" height="3" rx="0.5" fill="#e5e7eb"/>
  <rect x="22" y="14" width="3" height="3" rx="0.5" fill="#e5e7eb"/>
  
  <rect x="10" y="18" width="3" height="3" rx="0.5" fill="#e5e7eb"/>
  <rect x="14" y="18" width="3" height="3" rx="0.5" fill="#e5e7eb"/>
  <rect x="18" y="18" width="3" height="3" rx="0.5" fill="#e5e7eb"/>
  <rect x="22" y="18" width="3" height="3" rx="0.5" fill="#e5e7eb"/>
  
  <rect x="10" y="22" width="3" height="3" rx="0.5" fill="#e5e7eb"/>
  <rect x="14" y="22" width="3" height="3" rx="0.5" fill="#e5e7eb"/>
  <rect x="18" y="22" width="3" height="3" rx="0.5" fill="#e5e7eb"/>
  <rect x="22" y="22" width="3" height="3" rx="0.5" fill="#e5e7eb"/>
  
  <!-- Phone icon overlay -->
  <circle cx="24" cy="8" r="3" fill="#10b981" stroke="#059669" stroke-width="0.5"/>
  <rect x="23" y="7" width="2" height="2" rx="0.3" fill="#ffffff"/>
</svg>
